<svg width="713" height="441" viewBox="0 0 713 441" fill="none" xmlns="http://www.w3.org/2000/svg">
<path fill-rule="evenodd" clip-rule="evenodd" d="M0 397H713V425H0V397Z" fill="#95B2EE"/>
<path fill-rule="evenodd" clip-rule="evenodd" d="M0 408H713V415H0V408Z" fill="#A7C3FF"/>
<path d="M679 160L471 160V166H679V160Z" fill="url(#paint0_linear)"/>
<path fill-rule="evenodd" clip-rule="evenodd" d="M682 3L467 3V166H682V3Z" fill="#A7C3FF"/>
<path d="M679 5L471 5V163H679V5Z" fill="#EAEFFF"/>
<rect width="60" height="13" transform="matrix(-1 0 0 1 606 153)" fill="#A7C3FF"/>
<path d="M621.42 79.9784L610.047 67.2432H575.42V141.243H621.42V79.9784Z" fill="white" stroke="#D2E0FF"/>
<rect width="4" height="13" transform="matrix(-0.743145 -0.669131 -0.669131 0.743145 583.425 66.0078)" fill="#C6D8FF"/>
<rect x="582.425" y="142.992" width="4" height="13" transform="rotate(138 582.425 142.992)" fill="#C6D8FF"/>
<path fill-rule="evenodd" clip-rule="evenodd" d="M624.683 135.685L621.921 133.331L614.754 142.992L617.619 145.058L624.683 135.685Z" fill="#C6D8FF"/>
<path fill-rule="evenodd" clip-rule="evenodd" d="M610.301 66.7432L621.92 79.541C621.92 79.541 620.118 81.2412 617.884 82.1341C615.651 83.0271 611.266 83.7549 611.266 83.7549C611.266 83.7549 612.084 79.6203 611.912 76.3656C611.741 73.1109 610.301 66.7432 610.301 66.7432Z" fill="#C6D8FF"/>
<rect x="493" y="20" width="47" height="58" fill="#C6D8FF"/>
<path d="M493.503 20.5H539.503C539.503 20.5387 539.504 20.5795 539.504 20.6225C539.508 21.0271 539.516 21.6197 539.531 22.3737C539.563 23.8815 539.625 26.0346 539.751 28.618C540.001 33.7833 540.502 40.6755 541.505 47.572C542.508 54.4681 544.012 61.3597 545.264 66.5241C545.89 69.107 546.454 71.2597 546.861 72.7671C547.062 73.5099 547.224 74.0961 547.338 74.5H501.377C501.356 74.4264 501.332 74.342 501.306 74.247C501.193 73.8457 501.029 73.2565 500.826 72.5063C500.421 71.0059 499.86 68.8617 499.236 66.2884C497.988 61.1403 496.492 54.2819 495.495 47.428C494.498 40.5745 493.999 33.7167 493.749 28.5695C493.625 25.9967 493.562 23.8529 493.531 22.3529C493.516 21.6029 493.508 21.0139 493.504 20.6128C493.504 20.5734 493.503 20.5358 493.503 20.5Z" fill="white" stroke="#D2E0FF"/>
<path fill-rule="evenodd" clip-rule="evenodd" d="M517.5 25C518.328 25 519 24.3284 519 23.5C519 22.6716 518.328 22 517.5 22C516.672 22 516 22.6716 516 23.5C516 24.3284 516.672 25 517.5 25Z" fill="#C6D8FF"/>
<rect x="632.497" y="23.8809" width="21" height="26" transform="rotate(-18 632.497 23.8809)" fill="#FFBF29"/>
<path fill-rule="evenodd" clip-rule="evenodd" d="M650.081 23.2341C650.909 23.2341 651.581 22.5626 651.581 21.7341C651.581 20.9057 650.909 20.2341 650.081 20.2341C649.252 20.2341 648.581 20.9057 648.581 21.7341C648.581 22.5626 649.252 23.2341 650.081 23.2341Z" fill="white"/>
<path fill-rule="evenodd" clip-rule="evenodd" d="M603 20H624C624 20 623.75 26.5 624.5 33C625.25 39.5 627 46 627 46H606C606 46 604.25 39.5 603.5 33C602.75 26.5 603 20 603 20Z" fill="#FF5D8E"/>
<path fill-rule="evenodd" clip-rule="evenodd" d="M614.081 24.2341C614.909 24.2341 615.581 23.5626 615.581 22.7341C615.581 21.9057 614.909 21.2341 614.081 21.2341C613.252 21.2341 612.581 21.9057 612.581 22.7341C612.581 23.5626 613.252 24.2341 614.081 24.2341Z" fill="white"/>
<rect x="577" y="20" width="21" height="26" fill="#467FFF"/>
<path fill-rule="evenodd" clip-rule="evenodd" d="M588.081 24.2341C588.909 24.2341 589.581 23.5626 589.581 22.7341C589.581 21.9057 588.909 21.2341 588.081 21.2341C587.252 21.2341 586.581 21.9057 586.581 22.7341C586.581 23.5626 587.252 24.2341 588.081 24.2341Z" fill="white"/>
<path fill-rule="evenodd" clip-rule="evenodd" d="M158.4 0H366.3V425.062L204.6 425.6L158.4 422.8V0Z" fill="#C8DAFF"/>
<path fill-rule="evenodd" clip-rule="evenodd" d="M150 0H204.6V425.6L150 422.8L150 0Z" fill="#A7C3FF"/>
<path fill-rule="evenodd" clip-rule="evenodd" d="M287.55 5.94995H358.25V415.45H287.55V5.94995ZM356.15 413.35V8.04995H289.65V413.35H356.15Z" fill="#EAEFFF"/>
<path fill-rule="evenodd" clip-rule="evenodd" d="M305.4 23.7998H343.2V47.5998H305.4L305.4 23.7998Z" fill="#A7C3FF"/>
<path d="M305.4 22.3999H344.6L346 27.9999H306.8L305.4 22.3999Z" fill="#EAEFFF"/>
<path d="M305.4 30.7998H344.6L346 36.3998H306.8L305.4 30.7998Z" fill="#EAEFFF"/>
<path d="M305.4 39.2H344.6L346 44.8H306.8L305.4 39.2Z" fill="#EAEFFF"/>
<path fill-rule="evenodd" clip-rule="evenodd" d="M228.4 23.7998H266.2V47.5998H228.4L228.4 23.7998Z" fill="#A7C3FF"/>
<path d="M228.4 22.3999H267.6L269 27.9999H229.8L228.4 22.3999Z" fill="#EAEFFF"/>
<path d="M228.4 30.7998H267.6L269 36.3998H229.8L228.4 30.7998Z" fill="#EAEFFF"/>
<path d="M228.4 39.2H267.6L269 44.8H229.8L228.4 39.2Z" fill="#EAEFFF"/>
<path fill-rule="evenodd" clip-rule="evenodd" d="M228.4 376.6H266.2V400.4H228.4L228.4 376.6Z" fill="#A7C3FF"/>
<path d="M228.4 375.2H267.6L269 380.8H229.8L228.4 375.2Z" fill="#EAEFFF"/>
<path d="M228.4 383.6H267.6L269 389.2H229.8L228.4 383.6Z" fill="#EAEFFF"/>
<path d="M228.4 392H267.6L269 397.6H229.8L228.4 392Z" fill="#EAEFFF"/>
<path fill-rule="evenodd" clip-rule="evenodd" d="M305.4 376.6H343.2V400.4H305.4L305.4 376.6Z" fill="#A7C3FF"/>
<path d="M305.4 375.2H344.6L346 380.8H306.8L305.4 375.2Z" fill="#EAEFFF"/>
<path d="M305.4 383.6H344.6L346 389.2H306.8L305.4 383.6Z" fill="#EAEFFF"/>
<path d="M305.4 392H344.6L346 397.6H306.8L305.4 392Z" fill="#EAEFFF"/>
<rect x="341.8" y="183.4" width="9.8" height="39.2" fill="#EAEFFF"/>
<rect x="264.8" y="183.4" width="9.8" height="39.2" fill="#EAEFFF"/>
<path fill-rule="evenodd" clip-rule="evenodd" d="M210.55 5.94995H281.25V415.45H210.55V5.94995ZM279.15 413.35V8.04995H212.65V413.35H279.15Z" fill="#EAEFFF"/>
<path fill-rule="evenodd" clip-rule="evenodd" d="M254.026 395.048H267.331L269.179 413.528H256.983L254.026 395.048Z" fill="#616988"/>
<path fill-rule="evenodd" clip-rule="evenodd" d="M255.135 405.011V424.6H296.16V421.738C296.16 421.738 293.117 417.152 286.614 417.152C280.11 417.152 273.705 415.602 271.427 413.113C269.149 410.624 268.917 405.011 268.917 405.011L255.135 405.011Z" fill="#4F2511"/>
<rect x="255.135" y="422.768" width="41.0256" height="3.3264" fill="#34180A"/>
<path fill-rule="evenodd" clip-rule="evenodd" d="M219.838 208.078L242.886 310.996C242.886 310.996 241.529 326.452 241.529 337.378C241.529 348.304 251.638 403.228 251.638 403.228H271.582L261.691 208.078H219.838Z" fill="#203584"/>
<path fill-rule="evenodd" clip-rule="evenodd" d="M193.781 395.417H207.087L204.869 413.897H192.672L193.781 395.417Z" fill="#7680A4"/>
<path fill-rule="evenodd" clip-rule="evenodd" d="M192.672 405.381L191.933 424.97H232.959V422.108C232.959 422.108 230.654 417.522 224.151 417.522C217.648 417.522 211.243 415.972 208.965 413.483C206.687 410.994 206.455 405.381 206.455 405.381L192.672 405.381Z" fill="#823E1D"/>
<rect x="191.933" y="423.137" width="41.0256" height="3.3264" fill="#4F2511"/>
<path fill-rule="evenodd" clip-rule="evenodd" d="M201.358 208.448L197.425 307.67C197.425 307.67 192.373 324.235 192.373 335.161C192.373 346.087 190.654 403.598 190.654 403.598H208.75L242.568 208.448H201.358Z" fill="#2E47A6"/>
<path fill-rule="evenodd" clip-rule="evenodd" d="M229.235 214.244L217.829 230.363L219.5 214.313L229.235 214.244Z" fill="#203584"/>
<path d="M219.741 210.964L208.315 311.073C208.315 311.073 204.96 323.492 203.19 337.228C201.42 350.964 197.755 403.598 197.755 403.598" stroke="#98ABF4" stroke-width="0.5544"/>
<path fill-rule="evenodd" clip-rule="evenodd" d="M268.847 149.308L277.237 165.691L308.003 136.121C308.127 136.002 308.206 135.843 308.225 135.672L309.496 124.575C309.496 124.575 316.811 112.812 318.008 117.094C318.455 118.694 314.668 120.573 315.394 125.801C315.529 126.77 323.357 121.48 326.717 119.16C327.265 118.782 328 119.262 327.873 119.916L325.504 132.136C325.472 132.302 325.383 132.453 325.253 132.562L314.058 141.916L285.516 180.882C281.081 186.937 271.878 186.405 268.17 179.881L254.641 156.077L268.847 149.308Z" fill="#FFC4A7"/>
<path d="M321.18 121.443H315.02V135.303H321.18V121.443Z" fill="#F5AC00"/>
<path d="M328.11 96.418H336.28C337.769 96.418 338.975 97.6246 338.975 99.113C338.975 99.2772 338.96 99.4411 338.93 99.6026C337.772 105.871 336.593 110.038 335.335 112.19C333.829 114.768 331.342 116.003 328.057 115.854L328.162 113.546C330.62 113.658 332.285 112.831 333.341 111.024C334.422 109.174 335.547 105.198 336.659 99.1829C336.663 99.1598 336.665 99.1364 336.665 99.113C336.665 98.9004 336.493 98.728 336.28 98.728H328.11V96.418Z" fill="#FFBF29"/>
<path d="M333.5 93.7229H302.7L304.554 112.264C305.25 119.223 311.106 124.523 318.1 124.523C325.093 124.523 330.949 119.223 331.645 112.264L333.5 93.7229Z" fill="#FFBF29"/>
<path d="M308.86 110.663C309.681 115.182 310.832 119.373 312.311 123.235C313.413 123.751 314.592 124.125 315.824 124.333C314.135 120.171 312.84 115.614 311.94 110.663C310.992 105.454 310.482 99.8077 310.409 93.7249L307.329 93.7249C307.402 99.8077 307.912 105.454 308.86 110.663Z" fill="#F5AC00"/>
<path d="M303.888 96.418H299.952C298.464 96.418 297.257 97.6246 297.257 99.113C297.257 99.2772 297.272 99.4411 297.302 99.6026C298.46 105.871 299.639 110.038 300.897 112.19C301.797 113.731 303.84 114.872 307.025 115.613C307.507 115.725 307.988 115.425 308.1 114.944C308.119 114.864 308.126 114.782 308.123 114.7C308.093 114.038 307.627 113.477 306.982 113.326C304.861 112.828 303.497 112.061 302.891 111.024C301.81 109.174 300.685 105.198 299.574 99.1829L299.567 99.113C299.567 98.9004 299.74 98.728 299.952 98.728H303.888C304.526 98.728 305.043 98.2109 305.043 97.573C305.043 96.9351 304.526 96.418 303.888 96.418Z" fill="#FFBF29"/>
<path d="M338.12 132.223H297.52V155.323H338.12V132.223Z" fill="#F5AC00"/>
<rect width="21.56" height="23.1" transform="matrix(-1 0 0 1 338.12 132.223)" fill="#FFBF29"/>
<rect width="16.94" height="16.94" transform="matrix(-1 0 0 1 336.054 134.878)" fill="#F5AC00"/>
<path d="M262.934 128.429C260.608 123.658 254.855 121.678 250.085 124.004L247.759 125.138C242.989 127.465 241.008 133.218 243.335 137.988L257.755 167.553L277.354 157.994L262.934 128.429Z" fill="#FF4F4F"/>
<path fill-rule="evenodd" clip-rule="evenodd" d="M258.607 143.672L265.523 163.844L260.64 166.15L258.607 143.672Z" fill="#080708" fill-opacity="0.221263"/>
<path fill-rule="evenodd" clip-rule="evenodd" d="M198.024 130.476C198.024 126.327 201.148 122.844 205.272 122.393L231.843 119.489L251.828 122.284C255.594 122.811 258.492 125.877 258.805 129.667L265.661 212.628L198.024 216.324V130.476Z" fill="#FF4F4F"/>
<path fill-rule="evenodd" clip-rule="evenodd" d="M212.422 146.169L198.178 192.901V165.196L212.422 146.169Z" fill="#080708" fill-opacity="0.221263"/>
<path fill-rule="evenodd" clip-rule="evenodd" d="M283.557 153.289C283.557 152.516 282.93 151.889 282.157 151.889H242.957C242.184 151.889 241.557 152.516 241.557 153.289V202.289C241.557 203.062 242.184 203.689 242.957 203.689H282.157C282.93 203.689 283.557 203.062 283.557 202.289V153.289Z" fill="#D5E4FF"/>
<path d="M284.457 151.889C284.457 151.392 284.054 150.989 283.557 150.989H244.357C243.86 150.989 243.457 151.392 243.457 151.889V200.889C243.457 201.386 243.86 201.789 244.357 201.789H283.557C284.054 201.789 284.457 201.386 284.457 200.889V151.889Z" fill="white" stroke="#D2E0FF"/>
<path d="M252.757 189.689H245.057V205.789L248.907 201.589L252.757 205.789V189.689Z" fill="#F5AC00"/>
<path d="M248.207 195.989C242.988 195.989 238.757 191.758 238.757 186.539C238.757 181.32 242.988 177.089 248.207 177.089C253.426 177.089 257.657 181.32 257.657 186.539C257.657 191.758 253.426 195.989 248.207 195.989Z" fill="#F5AC00"/>
<path d="M248.907 195.989C243.688 195.989 239.457 191.758 239.457 186.539C239.457 181.32 243.688 177.089 248.907 177.089C254.126 177.089 258.357 181.32 258.357 186.539C258.357 191.758 254.126 195.989 248.907 195.989Z" fill="#FFBF29"/>
<path fill-rule="evenodd" clip-rule="evenodd" d="M251.488 186.139C251.739 185.833 252.191 185.79 252.496 186.043C252.802 186.295 252.845 186.748 252.593 187.055L250.105 190.078C249.806 190.443 249.268 190.494 248.905 190.193C248.852 190.149 248.804 190.099 248.763 190.044L245.199 185.237C244.962 184.919 245.028 184.468 245.346 184.231C245.663 183.994 246.112 184.06 246.348 184.379L249.471 188.59L251.488 186.139Z" fill="white"/>
<path fill-rule="evenodd" clip-rule="evenodd" d="M251.387 160.767C251.097 160.767 250.862 161.002 250.862 161.292C250.862 161.558 251.059 161.778 251.316 161.813L251.387 161.817H277.048C277.338 161.817 277.573 161.582 277.573 161.292C277.573 161.027 277.375 160.807 277.119 160.772L277.048 160.767H251.387Z" fill="#A7C3FF"/>
<path fill-rule="evenodd" clip-rule="evenodd" d="M251.387 167.067C251.097 167.067 250.862 167.302 250.862 167.592C250.862 167.858 251.059 168.078 251.316 168.113L251.387 168.117H277.048C277.338 168.117 277.573 167.882 277.573 167.592C277.573 167.327 277.375 167.107 277.119 167.072L277.048 167.067H251.387Z" fill="#A7C3FF"/>
<path fill-rule="evenodd" clip-rule="evenodd" d="M251.387 174.067C251.097 174.067 250.862 174.302 250.862 174.592C250.862 174.858 251.059 175.078 251.316 175.113L251.387 175.117H277.048C277.338 175.117 277.573 174.882 277.573 174.592C277.573 174.327 277.375 174.107 277.119 174.072L277.048 174.067H251.387Z" fill="#A7C3FF"/>
<path fill-rule="evenodd" clip-rule="evenodd" d="M259.787 181.067C259.497 181.067 259.262 181.302 259.262 181.592C259.262 181.858 259.459 182.078 259.716 182.113L259.787 182.117H277.048C277.338 182.117 277.573 181.882 277.573 181.592C277.573 181.327 277.375 181.107 277.119 181.072L277.048 181.067H259.787Z" fill="#A7C3FF"/>
<path fill-rule="evenodd" clip-rule="evenodd" d="M199.667 161.309L191.725 175.858C191.725 175.858 256.35 154.168 256.944 155.155C257.927 156.789 251.86 159.754 250.281 161.711C248.702 163.668 250.281 169.199 248.56 171.266C247.808 172.168 239.951 172.179 237.335 172.179C236.232 172.179 223.787 177.542 204.723 187.326C203.273 188.069 198.801 189.997 193.263 192.325C182.118 197.011 171.138 185.501 176.238 174.54L186.111 153.317L199.667 161.309Z" fill="#FFC4A7"/>
<path fill-rule="evenodd" clip-rule="evenodd" d="M197.488 127.733C200.221 123.184 206.125 121.712 210.674 124.445L212.892 125.778C217.441 128.511 218.913 134.415 216.179 138.964L199.238 167.16L180.546 155.929L197.488 127.733Z" fill="#FF4F4F"/>
<path fill-rule="evenodd" clip-rule="evenodd" d="M235.884 161.423C235.884 161.423 240.908 151.278 242.692 151.398C244.476 151.519 241.172 161.151 241.172 161.151L235.884 161.423Z" fill="#FFC4A7"/>
<path fill-rule="evenodd" clip-rule="evenodd" d="M224.734 119.865C224.734 123.656 227.807 126.727 231.597 126.727C235.697 126.727 238.883 123.155 238.416 119.082L237.814 113.828C237.814 113.828 246.472 114.514 249.404 110.327C252.337 106.14 251.932 84.3333 251.932 84.3333L224.734 84.3333C224.734 84.3333 224.734 89.7393 224.734 91.6141C216.43 91.6141 216.43 101.641 224.734 101.641C224.734 107.6 224.734 114.732 224.734 119.865Z" fill="#FFC4A7"/>
<path fill-rule="evenodd" clip-rule="evenodd" d="M237.916 113.845C237.916 113.845 235.346 113.498 233.367 112.874C231.389 112.251 228.886 110.991 228.886 110.991C228.886 110.991 232.282 114.291 234.068 115.709C235.853 117.127 238.344 118.504 238.344 118.504L237.916 113.845Z" fill="#F19B93"/>
<path fill-rule="evenodd" clip-rule="evenodd" d="M224.734 91.6141L225.383 97.6178C225.434 98.0907 225.833 98.4491 226.309 98.4491C226.701 98.4491 227.051 98.2039 227.185 97.8355L230.087 89.8401C231.095 87.0631 233.734 85.214 236.688 85.214H251.981C251.981 85.214 255.152 81.6716 256.472 79.2355C257.793 76.7995 259.284 72.8453 259.284 72.8453C259.284 72.8453 237.849 67.8021 231.994 69.3732C226.139 70.9442 224.734 76.6938 224.734 76.6938C224.734 76.6938 219.339 78.2692 217.809 82.0525C216.279 85.8358 219.963 93.2787 219.963 93.2787C219.963 93.2787 221.121 92.1923 222.566 91.8989C223.303 91.7495 224.734 91.6141 224.734 91.6141Z" fill="#8A5835"/>
<path fill-rule="evenodd" clip-rule="evenodd" d="M247.375 92.7371L251.091 100.025C251.197 100.234 251.084 100.489 250.857 100.55L247.375 101.487V92.7371Z" fill="#F19B93"/>
<path fill-rule="evenodd" clip-rule="evenodd" d="M135.228 425.735C138.566 426.517 148.461 425.648 155.878 426.166C159.218 426.4 165.853 425.663 166.992 425.155C168.624 424.427 166.091 422.338 164.431 421.675C161.712 420.589 157.398 418.849 154.378 417.547C149.654 415.511 144.992 413.608 144.464 410.429C143.936 407.249 142.261 391.764 142.261 391.764L129.527 391.226C129.527 391.226 132.861 410.109 132.506 412.177C132.151 414.245 132.151 422.142 132.151 422.142C132.151 422.142 131.89 424.953 135.228 425.735Z" fill="#FFC4A7"/>
<path fill-rule="evenodd" clip-rule="evenodd" d="M132.444 411.015C132.444 411.015 133.745 414.383 138.154 414.691C142.564 414.999 144.406 411.848 144.45 411.228C144.493 410.608 144.923 410.076 145.332 410.385C145.741 410.695 154.149 417.995 156.043 418.127C157.937 418.26 166.094 418.966 167.403 421.535C168.712 424.104 167.032 426.844 167.032 426.844C167.032 426.844 156.462 427.887 145.332 426.844C134.202 425.801 132.462 426.818 131.776 426.01C131.09 425.201 130.938 421.685 130.742 421.019C129.259 416 132.444 411.015 132.444 411.015Z" fill="#7CA1D9"/>
<path fill-rule="evenodd" clip-rule="evenodd" d="M138.166 423.888C139.555 424.101 145.345 423.534 146.666 423.664L147.434 423.747C149.972 424.037 155.032 424.714 156.753 424.714C162.166 424.714 165.864 424.05 167.845 422.723C168.166 424.062 167.895 425.436 167.032 426.844C163.899 428.028 160.59 428.617 157.107 428.61C154.991 428.606 148.798 427.764 146.659 427.564C145.031 427.411 140.28 428.011 139.032 427.881L137.999 427.769C131.815 427.08 132.332 426.666 131.776 426.01C131.259 425.4 131.045 423.253 130.887 421.947C133.678 422.927 136.104 423.573 138.166 423.888Z" fill="#174E9F"/>
<path fill-rule="evenodd" clip-rule="evenodd" d="M129.275 395.053H142.938L139.592 324.455L115.201 221H74.2075L116.965 324.455C116.965 324.455 118.37 347.732 120.785 360.546C123.2 373.359 129.275 395.053 129.275 395.053Z" fill="#174E9F"/>
<path fill-rule="evenodd" clip-rule="evenodd" d="M127.27 391.796C127.246 391.373 127.584 391.016 128.008 391.016H143.898C144.291 391.016 144.615 391.323 144.637 391.714L144.924 396.889C144.948 397.312 144.61 397.669 144.186 397.669H128.295C127.903 397.669 127.579 397.362 127.557 396.971L127.27 391.796Z" fill="#113C7B"/>
<path fill-rule="evenodd" clip-rule="evenodd" d="M23.6042 416.95C26.3357 419.022 35.7287 422.252 42.2937 425.743C45.2495 427.315 51.1465 429.017 52.3936 429.016C54.1826 429.014 52.7249 426.066 51.4919 424.77C49.5809 422.761 46.6144 419.628 44.4294 417.259C40.942 413.477 37.4563 409.843 38.2677 406.723C39.0791 403.604 47.463 391.196 47.463 391.196L34.4195 386.578L22.2544 412.416C22.2544 412.416 20.8727 414.878 23.6042 416.95Z" fill="#FFC4A7"/>
<path fill-rule="evenodd" clip-rule="evenodd" d="M26.9242 402.1C26.9242 402.1 26.743 405.706 30.6458 407.781C34.5485 409.856 37.5137 407.727 37.8055 407.178C38.0974 406.629 38.7066 406.318 38.9544 406.767C39.2023 407.216 43.9134 417.305 45.5901 418.196C47.2669 419.088 54.4307 423.051 54.5818 425.93C54.7329 428.81 52.0835 430.629 52.0835 430.629C52.0835 430.629 41.2721 428.554 31.5286 423.074C21.7851 417.594 20.513 416.545 20.2154 415.527C19.9178 414.509 21.2087 411.235 21.2998 410.547C21.9871 405.359 26.9242 402.1 26.9242 402.1Z" fill="#A0C6FF"/>
<path fill-rule="evenodd" clip-rule="evenodd" d="M38.4951 422.247C44.0017 424.699 49.3599 426.184 54.5698 426.702C54.4359 428.273 53.607 429.583 52.0834 430.629C44.8758 429.246 38.0242 426.728 31.5285 423.074L28.6906 421.467C21.5247 417.371 20.4811 416.436 20.2153 415.527C19.9783 414.717 20.7485 412.476 21.1182 411.249C27.2721 416.164 33.0645 419.829 38.4951 422.247Z" fill="#2B6AC7"/>
<path fill-rule="evenodd" clip-rule="evenodd" d="M60.5341 221L55.6369 321.264C55.6369 321.264 49.5902 335.977 46.7702 344.615C43.6307 354.232 44.4369 356.17 34.533 385.32C33.6483 387.924 47.1398 392.288 47.1398 392.288L78.7986 324.259L100.981 221H60.5341Z" fill="#1E62C8"/>
<path fill-rule="evenodd" clip-rule="evenodd" d="M80.0126 224.127L67.9224 241.214L69.6938 224.201L80.0126 224.127Z" fill="#174E9F"/>
<path d="M69.3179 221.392L62.409 324.197C62.4063 324.238 62.397 324.278 62.3817 324.317L36.6274 388.422" stroke="#174E9F" stroke-width="0.587664"/>
<path fill-rule="evenodd" clip-rule="evenodd" d="M33.6754 383.977C33.853 383.599 34.308 383.443 34.68 383.632L48.8399 390.847C49.1955 391.028 49.3431 391.459 49.1733 391.82L47.1115 396.207C46.9339 396.585 46.4789 396.741 46.1069 396.552L31.947 389.337C31.5914 389.156 31.4438 388.725 31.6135 388.364L33.6754 383.977Z" fill="#174E9F"/>
<path fill-rule="evenodd" clip-rule="evenodd" d="M116.044 148.369L128.94 176.074L132.777 148.369C133.262 144.908 133.539 142.976 133.608 142.574C133.869 141.049 132.077 137.831 131.855 134.667L131.825 134.175C131.604 131.017 130.529 127.254 130.681 126.193C130.839 125.096 132.27 125.807 133.163 126.521C135.155 128.115 135.008 130.276 136.277 132.914C136.726 133.847 140.982 124.395 142.679 124.395C144.375 124.395 149.534 132.475 149.534 135.025C149.534 136.725 146.996 140.146 141.92 145.289L140.005 189.069C139.767 194.516 135.158 198.739 129.711 198.501C126.112 198.343 122.885 196.239 121.29 193.01L101.786 155.179L116.044 148.369Z" fill="#FFC4A7"/>
<path fill-rule="evenodd" clip-rule="evenodd" d="M113.149 138.533C111.213 134.237 106.079 132.432 101.88 134.571L100.295 135.379C96.1934 137.469 94.5952 142.511 96.7439 146.582L121.353 193.208C125.743 201.525 138.149 199.708 139.969 190.48L142.695 176.656L129.252 171.519L128.939 173.573L113.149 138.533Z" fill="#A0C6FF"/>
<path fill-rule="evenodd" clip-rule="evenodd" d="M112.171 144.862C112.171 144.862 121.239 160.823 121.239 165.638C121.239 170.454 116.705 184.784 116.705 184.784L111.093 173.668L112.171 144.862Z" fill="#080708" fill-opacity="0.223011"/>
<path fill-rule="evenodd" clip-rule="evenodd" d="M128.94 173.573L127.424 183.689V170.216L128.94 173.573Z" fill="#080708" fill-opacity="0.223011"/>
<path fill-rule="evenodd" clip-rule="evenodd" d="M58.0092 144.749C56.7252 139.714 60.1542 134.696 65.3112 134.064L87.5181 131.339L105.571 133.362C106.776 133.497 107.821 134.231 108.334 135.33C110.845 140.717 118.24 157.107 118.664 164.193C119.056 170.734 113.087 178.03 113.087 184.735C113.087 191.441 117.489 223.014 117.489 223.014L56.685 226.093C56.1477 226.12 55.7435 225.61 55.8925 225.094L67.8866 183.478L58.0092 144.749Z" fill="#FFC4A7"/>
<path fill-rule="evenodd" clip-rule="evenodd" d="M58.0092 144.749C56.7252 139.714 60.1542 134.696 65.3112 134.064L78.507 132.445C78.507 132.445 85.5778 144.04 94.147 143.32C102.716 142.601 97.8152 132.493 97.8152 132.493L105.571 133.362C106.776 133.497 107.821 134.231 108.334 135.33C110.845 140.717 118.24 157.107 118.664 164.193C119.056 170.734 113.087 178.03 113.087 184.735C113.087 191.441 117.489 223.015 117.489 223.015L56.685 226.093C56.1477 226.12 55.7435 225.611 55.8925 225.094L67.8866 183.478L58.0092 144.749Z" fill="#E3E9FF"/>
<path fill-rule="evenodd" clip-rule="evenodd" d="M72.4356 147.993L66.7208 177.317L62.2178 161.708L72.4356 147.993Z" fill="#080708" fill-opacity="0.223011"/>
<path fill-rule="evenodd" clip-rule="evenodd" d="M68.5506 152.486L49.6128 183.212C49.6128 183.212 78.9511 194.587 88.4033 197.209C91.6585 198.112 95.8782 189.88 100.644 191.064C102.478 191.52 95.2414 198.152 98.6953 198.758C106.403 200.11 112.34 201.422 112.89 203.065C113.564 205.082 105.077 209.951 101.309 210.534C99.2345 210.855 93.1727 208.691 85.8722 206.745C80.7397 205.377 60.0073 200.847 44.7989 197.56C36.4243 195.75 32.1972 186.344 36.4097 178.883L55.6188 144.862L68.5506 152.486Z" fill="#FFC4A7"/>
<path fill-rule="evenodd" clip-rule="evenodd" d="M57.202 139.949C59.5319 135.683 65.027 134.345 69.0572 137.063L70.6409 138.132C74.2808 140.587 75.3605 145.462 73.0974 149.225L52.8168 182.941L60.4384 186.17L55.264 201.319L39.9693 197.15C33.7505 195.454 30.7463 188.396 33.8355 182.739L57.202 139.949Z" fill="#A0C6FF"/>
<path fill-rule="evenodd" clip-rule="evenodd" d="M80.1239 91.4701C88.0775 75.649 107.886 85.1371 111.314 95.7787C113.143 101.458 114.141 115.421 110.316 121.781C108.399 124.968 106.842 133.542 106.842 133.542L88.8262 132.174L65.2617 134.001C65.2617 134.001 65.6262 124.83 68.1919 121.781C70.8719 118.597 72.1563 116.887 72.1563 108.952C72.1563 101.017 72.9464 91.4701 80.1239 91.4701Z" fill="#0A2650"/>
<path fill-rule="evenodd" clip-rule="evenodd" d="M82.7135 132.418C82.7135 135.876 85.5162 138.674 88.9735 138.674C92.65 138.674 95.535 135.52 95.2088 131.858L94.4854 123.739C94.4854 123.739 102.278 124.356 104.917 120.588C107.556 116.82 107.192 97.1931 107.192 97.1931L82.7135 97.1931C82.7135 97.1931 82.7135 102.059 82.7135 103.746C75.24 103.746 75.24 112.77 82.7135 112.77C82.7135 118.563 82.7135 126.798 82.7135 132.418Z" fill="#FFC4A7"/>
<path fill-rule="evenodd" clip-rule="evenodd" d="M94.5009 123.718C94.5009 123.718 92.1878 123.406 90.407 122.845C88.6263 122.283 86.3735 121.15 86.3735 121.15C86.3735 121.15 89.4303 124.119 91.0372 125.396C92.6442 126.672 94.886 127.911 94.886 127.911L94.5009 123.718Z" fill="#F19B93"/>
<path fill-rule="evenodd" clip-rule="evenodd" d="M102.166 108.281L102.166 114.75C102.166 114.75 104.862 113.35 104.862 112.803C104.862 112.257 102.166 108.281 102.166 108.281Z" fill="#F19B93"/>
<path fill-rule="evenodd" clip-rule="evenodd" d="M100.22 97.7732C100.22 97.7732 102.3 102.809 104.156 104.323C106.013 105.838 109.248 106.309 109.248 106.309L109.484 94.7967L81.6899 92.7517V103.154C81.6899 103.154 89.4285 107.733 93.777 105.213C98.1255 102.692 100.22 97.7732 100.22 97.7732Z" fill="#0A2650"/>
<path fill-rule="evenodd" clip-rule="evenodd" d="M666.378 151.467L690.953 182.985C692.832 185.395 693.035 188.713 691.462 191.334L669.335 228.213C669.335 228.213 670.444 243.711 664.78 245.701C663.677 246.089 661.777 254.948 659.559 252.253C658.946 251.508 658.657 234.949 658.657 234.949L661.153 222.835L672.057 186.985L653.761 161.801L666.378 151.467Z" fill="#E09282"/>
<path d="M636.989 244.795C634.559 244.795 632.589 242.825 632.589 240.395C632.589 237.965 634.559 235.995 636.989 235.995C639.419 235.995 641.389 237.965 641.389 240.395C641.389 242.825 639.419 244.795 636.989 244.795Z" fill="#467FFF"/>
<path d="M700.589 235.995L636.589 235.995V244.795L700.589 245.595V235.995Z" fill="#467FFF"/>
<path fill-rule="evenodd" clip-rule="evenodd" d="M700.589 245.595C697.938 245.595 695.789 243.446 695.789 240.795C695.789 238.144 697.938 235.995 700.589 235.995C703.24 235.995 705.389 238.144 705.389 240.795C705.389 243.446 703.24 245.595 700.589 245.595Z" fill="#C8DAFF"/>
<path d="M703.938 237.204H703.778C703.91 238.094 703.91 238.59 703.91 239.518C703.91 242.059 701.851 244.118 699.31 244.118C698.138 244.118 697.515 244.155 696.674 243.38L696.519 243.231L696.235 243.512C697.168 244.455 698.436 244.995 699.789 244.995C702.55 244.995 704.789 242.757 704.789 239.995C704.789 239.064 704.534 238.171 704.061 237.395L703.938 237.204Z" fill="#467FFF"/>
<path fill-rule="evenodd" clip-rule="evenodd" d="M638.843 238.465C636.416 238.592 634.346 236.728 634.219 234.301C634.092 231.874 635.956 229.804 638.382 229.677C640.809 229.549 642.879 231.414 643.007 233.84C643.134 236.267 641.27 238.337 638.843 238.465Z" fill="#C8DAFF"/>
<path fill-rule="evenodd" clip-rule="evenodd" d="M701.895 226.348L637.983 229.697L638.443 238.485L702.397 235.935L701.895 226.348Z" fill="#C8DAFF"/>
<path d="M702.397 235.935C699.75 236.073 697.492 234.04 697.353 231.393C697.214 228.745 699.248 226.487 701.895 226.348C704.542 226.209 706.801 228.243 706.94 230.89C707.078 233.537 705.045 235.796 702.397 235.935Z" fill="#467FFF"/>
<path fill-rule="evenodd" clip-rule="evenodd" d="M705.302 227.38L705.142 227.388C705.321 228.27 705.347 228.765 705.396 229.692C705.529 232.229 703.58 234.394 701.043 234.527C699.872 234.588 699.252 234.658 698.372 233.928L698.209 233.787L697.94 234.083C698.921 234.975 700.216 235.448 701.567 235.377C704.325 235.233 706.443 232.88 706.298 230.123C706.25 229.193 705.948 228.314 705.435 227.564L705.302 227.38Z" fill="#C8DAFF"/>
<path fill-rule="evenodd" clip-rule="evenodd" d="M656.465 135.771C652.981 131.752 646.896 131.327 642.888 134.822L640.917 136.54C636.925 140.021 636.501 146.075 639.97 150.077L661.58 175.01L678.037 160.661L656.465 135.771Z" fill="#B7C3D1"/>
<path fill-rule="evenodd" clip-rule="evenodd" d="M656.654 154.043L662.66 174.039L661.58 175.01L657.642 170.473L656.654 154.043Z" fill="#080708" fill-opacity="0.245739"/>
<path fill-rule="evenodd" clip-rule="evenodd" d="M686.552 390.711L674.304 395.91L683.566 412.055L694.793 407.289L686.552 390.711Z" fill="#7680A4"/>
<path fill-rule="evenodd" clip-rule="evenodd" d="M690.05 397.484C690.05 397.484 692.296 402.57 694.649 405.449C695.878 406.954 697.722 409.512 700.182 413.124C700.596 413.731 687.369 423.992 675.918 428.647C668.605 431.62 661.226 429.962 661.162 429.679C660.707 427.641 661.374 426.105 663.164 425.072C666.809 422.968 673.057 422.476 674.484 419.903C675.911 417.33 678.741 403.199 678.741 403.199C678.741 403.199 681.961 402.663 683.732 401.64C685.503 400.618 690.05 397.484 690.05 397.484Z" fill="#283845"/>
<path fill-rule="evenodd" clip-rule="evenodd" d="M663.217 425.163C660.787 426.566 660.416 428.876 662.103 432.094L664.076 432.107C671.385 432.134 675.748 431.903 677.165 431.411L678.621 430.68L679.633 430.113C683.343 428.002 690.918 423.417 702.36 416.357L701.556 415.158C700.769 413.99 700.037 412.914 699.358 411.929L694.841 414.821C683.555 422.015 676.928 425.97 674.959 426.687C672.634 427.534 670.126 427.71 667.436 427.213L667.18 423.55C665.755 424.004 664.358 424.504 663.217 425.163Z" fill="#7680A4"/>
<path fill-rule="evenodd" clip-rule="evenodd" d="M656.801 219.405L661.421 317.85C661.421 317.85 667.649 325.828 673.063 339.483C676.361 347.799 682.05 366.32 689.391 395.044C690.086 397.76 677.129 403.097 677.129 403.097L635.874 320.306L614.947 219.405H656.801Z" fill="#03344B"/>
<path fill-rule="evenodd" clip-rule="evenodd" d="M588.024 401.2H574.718L572.131 419.68H584.328L588.024 401.2Z" fill="#616988"/>
<path fill-rule="evenodd" clip-rule="evenodd" d="M586.034 410.085C586.034 410.085 585.436 415.612 586.034 419.281C586.346 421.199 586.665 424.337 586.989 428.695C587.078 429.895 543.076 427.555 543.299 426.844C543.923 424.851 545.269 423.855 547.336 423.855C551.545 423.855 558.822 423.232 561.344 421.717C563.867 420.202 573.383 409.379 573.383 409.379C573.383 409.379 576.439 410.525 578.484 410.525C580.529 410.525 586.034 410.085 586.034 410.085Z" fill="#364B5D"/>
<path fill-rule="evenodd" clip-rule="evenodd" d="M551.649 423.794C550.079 423.907 548.575 423.961 547.336 423.961C544.531 423.961 543.054 425.776 542.906 429.405C548.674 432.071 553.286 433.404 556.74 433.404C557.844 433.404 563.273 432.007 569.235 431.844C571.484 431.783 573.661 433.025 576.602 432.94L585.602 432.643C586.137 432.624 586.689 432.604 587.258 432.584L587.121 430.569C587.045 429.49 586.97 428.475 586.894 427.526L585.816 427.694C581.941 428.283 578.954 428.604 576.854 428.657C574.238 428.722 571.344 427.097 569.235 427.13L567.91 427.156C561.547 427.303 556.943 427.728 555.648 427.5C553.211 427.071 551.282 426.585 549.86 426.042L551.649 423.794Z" fill="#7680A4"/>
<path fill-rule="evenodd" clip-rule="evenodd" d="M586.882 408.641H573.252L578.522 324.187L598.946 223.101H646.489C646.489 223.101 644.036 236.711 640.206 244.768C636.375 252.826 625.39 262.775 625.39 262.775L602.456 324.187C602.456 324.187 602.978 342.66 600.7 354.748C598.422 366.836 586.882 408.641 586.882 408.641Z" fill="#064C6C"/>
<path fill-rule="evenodd" clip-rule="evenodd" d="M603.229 226.379L608.097 243.43L612.964 226.448L603.229 226.379Z" fill="#03344B"/>
<path d="M612.905 226.379L584.488 323.511C584.474 323.559 584.465 323.608 584.461 323.657L577.343 408.641" stroke="#03344B" stroke-width="0.5544"/>
<path fill-rule="evenodd" clip-rule="evenodd" d="M608.654 104.172L604.938 111.46C604.831 111.67 604.945 111.924 605.171 111.985L608.654 112.922V104.172Z" fill="#B9726B"/>
<path fill-rule="evenodd" clip-rule="evenodd" d="M633.499 133.866H617.831L619.31 126.511C619.31 126.511 612.869 127.197 609.937 123.01C607.004 118.823 607.409 97.0161 607.409 97.0161L633.499 97.0161V133.866Z" fill="#E09282"/>
<path fill-rule="evenodd" clip-rule="evenodd" d="M634.646 119.52C634.192 120.599 633.135 121.284 631.964 121.284H627.808C626.586 121.284 625.492 120.535 625.101 119.377C624.384 117.254 623.304 113.709 622.907 110.566C622.291 105.69 618.029 104.339 618.029 104.339L617.453 109.477C617.36 110.307 616.658 110.935 615.823 110.935C614.916 110.935 614.182 110.2 614.182 109.294V102.389C614.182 100.357 612.708 98.6245 610.703 98.2985L607.36 97.7552C607.36 97.7552 606.846 90.349 610.912 86.9363C614.978 83.5236 625.134 83.164 630.945 85.1187C636.757 87.0735 641.219 92.9253 640.85 99.6497C640.558 104.959 636.387 115.373 634.646 119.52Z" fill="#321111"/>
<path fill-rule="evenodd" clip-rule="evenodd" d="M633.457 117.026C628.15 117.026 623.848 112.723 623.848 107.416C623.848 102.109 628.15 97.8064 633.457 97.8064C638.765 97.8064 643.067 102.109 643.067 107.416C643.067 112.723 638.765 117.026 633.457 117.026Z" fill="#321111"/>
<path fill-rule="evenodd" clip-rule="evenodd" d="M636.23 106.307C630.82 106.307 626.435 101.922 626.435 96.5129C626.435 91.1036 630.82 86.7185 636.23 86.7185C641.639 86.7185 646.024 91.1036 646.024 96.5129C646.024 101.922 641.639 106.307 636.23 106.307Z" fill="#321111"/>
<path fill-rule="evenodd" clip-rule="evenodd" d="M621.261 96.6976C615.545 96.6976 610.912 92.0643 610.912 86.3488C610.912 80.6333 615.545 76 621.261 76C626.976 76 631.609 80.6333 631.609 86.3488C631.609 92.0643 626.976 96.6976 621.261 96.6976Z" fill="#321111"/>
<path fill-rule="evenodd" clip-rule="evenodd" d="M632.903 93.7407C629.331 93.7407 626.435 90.8449 626.435 87.2727C626.435 83.7005 629.331 80.8047 632.903 80.8047C636.475 80.8047 639.371 83.7005 639.371 87.2727C639.371 90.8449 636.475 93.7407 632.903 93.7407Z" fill="#321111"/>
<path fill-rule="evenodd" clip-rule="evenodd" d="M609.803 96.3279C604.7 96.3279 600.563 92.191 600.563 87.0879C600.563 81.9848 604.7 77.8479 609.803 77.8479C614.906 77.8479 619.043 81.9848 619.043 87.0879C619.043 92.191 614.906 96.3279 609.803 96.3279Z" fill="#321111"/>
<path fill-rule="evenodd" clip-rule="evenodd" d="M606.107 98.9151C602.025 98.9151 598.715 95.6056 598.715 91.5231C598.715 87.4406 602.025 84.1311 606.107 84.1311C610.19 84.1311 613.499 87.4406 613.499 91.5231C613.499 95.6056 610.19 98.9151 606.107 98.9151Z" fill="#321111"/>
<path fill-rule="evenodd" clip-rule="evenodd" d="M612.39 102.242C607.287 102.242 603.15 98.1048 603.15 93.0017C603.15 87.8986 607.287 83.7617 612.39 83.7617C617.493 83.7617 621.63 87.8986 621.63 93.0017C621.63 98.1048 617.493 102.242 612.39 102.242Z" fill="#321111"/>
<path fill-rule="evenodd" clip-rule="evenodd" d="M619.31 126.511L622.576 126.037L617.831 133.866L619.31 126.511Z" fill="#B9726B"/>
<path fill-rule="evenodd" clip-rule="evenodd" d="M594.496 140.68C594.496 136.189 598.137 132.549 602.627 132.549H647.229C651.471 132.549 655 135.809 655.335 140.037L662.133 225.688L594.496 229.384V140.68Z" fill="#B7C3D1"/>
<path fill-rule="evenodd" clip-rule="evenodd" d="M594.496 216.313L594.58 218.726L661.395 216.393L662.133 225.688L594.496 229.384L594.496 216.313ZM660.049 199.427L660.751 208.278L594.496 210.592V201.717L660.049 199.427ZM658.761 183.2L659.405 191.314L594.496 193.58V185.444L658.761 183.2ZM657.414 166.235L658.117 175.086L594.496 177.308V168.432L657.414 166.235ZM656.126 150.008L656.77 158.121L594.496 160.296V152.159L656.126 150.008ZM647.229 132.549C651.471 132.549 654.999 135.809 655.335 140.037L655.482 141.894L594.496 144.023L594.496 140.68C594.496 136.189 598.136 132.549 602.627 132.549L616.133 132.547C616.102 132.666 616.086 132.79 616.086 132.918C616.086 133.687 616.672 134.318 617.422 134.39L617.564 134.397H633.827C634.643 134.397 635.305 133.735 635.305 132.918C635.305 132.79 635.289 132.666 635.258 132.547L647.229 132.549Z" fill="#E3E9FF"/>
<path fill-rule="evenodd" clip-rule="evenodd" d="M608.893 154.424L594.649 202.265V174.56L608.893 154.424Z" fill="#080708" fill-opacity="0.245739"/>
<path fill-rule="evenodd" clip-rule="evenodd" d="M587.921 158.895L579.531 175.278L548.751 145.694C548.635 145.583 548.559 145.438 548.533 145.28L546.716 134.129C546.716 134.129 539.957 122.399 538.76 126.681C538.313 128.281 542.692 130.2 541.966 135.428C541.831 136.403 533.619 130.382 530.172 127.808C529.635 127.406 528.881 127.871 528.995 128.533L531.268 141.713C531.297 141.886 531.388 142.042 531.522 142.155L542.71 151.503L571.252 190.469C575.687 196.523 584.89 195.992 588.598 189.467L602.127 165.664L587.921 158.895Z" fill="#E09282"/>
<path d="M593.834 138.016C596.16 133.246 601.913 131.265 606.683 133.591L609.009 134.725C613.779 137.052 615.76 142.805 613.433 147.575L599.013 177.14L579.414 167.581L593.834 138.016Z" fill="#B7C3D1"/>
<path fill-rule="evenodd" clip-rule="evenodd" d="M513.097 128.646C513.097 128.646 509.152 124.72 508.234 123.43C506.659 121.218 507.162 120.321 508.234 120.846C510.778 122.093 514.112 125.017 514.112 125.017L513.097 128.646Z" fill="#FFC4A7"/>
<path fill-rule="evenodd" clip-rule="evenodd" d="M480.927 154.42L502.693 170.366C502.693 170.366 512.882 144.154 514.297 133.871C514.496 132.423 512.444 130.395 512.351 128.754C512.182 125.785 514.842 109.85 515.674 109.85C517.31 109.85 516.529 120.064 516.529 120.064C516.529 120.064 525.431 120.914 525.431 122.156C525.431 131.393 523.312 133.863 523.353 134.471C523.513 136.893 519.201 162.597 516.214 180.003C514.962 187.296 506.424 190.638 500.54 186.153L472.954 165.122L480.927 154.42Z" fill="#FFC4A7"/>
<path fill-rule="evenodd" clip-rule="evenodd" d="M479.292 148.469C475.547 145.325 469.995 145.674 466.672 149.262L464.931 151.142C461.116 155.262 461.867 161.812 466.515 164.961L479.882 174.017L490.192 157.617L479.292 148.469Z" fill="#FFE3F4"/>
<path fill-rule="evenodd" clip-rule="evenodd" d="M477.434 159.433L478.367 173.013L475.079 170.793L477.434 159.433Z" fill="#080708" fill-opacity="0.16144"/>
<path fill-rule="evenodd" clip-rule="evenodd" d="M490.042 157.148C489.884 157.03 489.661 157.057 489.536 157.209L477.424 171.936C477.289 172.1 477.32 172.345 477.492 172.47L481.241 175.196C481.401 175.312 481.623 175.282 481.746 175.128L493.655 160.316C493.786 160.152 493.755 159.913 493.587 159.788L490.042 157.148Z" fill="#FF4F4F"/>
<path fill-rule="evenodd" clip-rule="evenodd" d="M508.9 191.532C508.844 190.691 508.145 190.038 507.303 190.038H468.663C468.238 190.038 467.831 190.207 467.531 190.507L466.634 191.404C466.484 191.554 466.4 191.757 466.4 191.969V238.038C466.4 238.922 467.116 239.638 468 239.638H506.802L510.79 238.411C511.499 238.192 511.965 237.515 511.916 236.775L508.9 191.532Z" fill="#FF326F"/>
<path fill-rule="evenodd" clip-rule="evenodd" d="M485.003 153.61C484.199 150.967 482.295 148.8 479.78 147.66L478.179 146.935L494.731 204.515L500.289 203.832L485.003 153.61Z" fill="#FF326F"/>
<path fill-rule="evenodd" clip-rule="evenodd" d="M506.452 193.185C506.423 192.322 505.715 191.638 504.852 191.638H467.2C466.316 191.638 465.6 192.354 465.6 193.238V238.038C465.6 238.922 466.316 239.638 467.2 239.638H506.346C507.25 239.638 507.975 238.889 507.945 237.985L506.452 193.185Z" fill="#FF5D8E"/>
<path fill-rule="evenodd" clip-rule="evenodd" d="M483.609 151.656C482.764 148.554 479.77 146.543 476.58 146.935L489.984 198.232L496.289 198.232L483.609 151.656Z" fill="#FF5D8E"/>
<path fill-rule="evenodd" clip-rule="evenodd" d="M492 196.388C491.116 196.388 490.4 195.672 490.4 194.788C490.4 193.905 491.116 193.188 492 193.188C492.884 193.188 493.6 193.905 493.6 194.788C493.6 195.672 492.884 196.388 492 196.388Z" fill="#C8DAFF"/>
<path fill-rule="evenodd" clip-rule="evenodd" d="M515.339 421.95C512.607 424.022 497.758 430.374 497.758 430.374C497.758 430.374 487.796 432.538 486.549 432.537C484.786 432.536 486.336 429.681 487.693 428.556C489.605 426.97 492.419 424.53 494.513 422.259C498.001 418.477 501.486 414.843 500.675 411.723C499.864 408.604 491.969 395.499 491.969 395.499L503.901 390.276L516.688 417.416C516.688 417.416 518.07 419.878 515.339 421.95Z" fill="#FFC4A7"/>
<path fill-rule="evenodd" clip-rule="evenodd" d="M513.786 407.567C514.489 408.204 518.257 412.807 518.257 412.807L519.483 415.32C519.483 415.32 504.935 427.081 499.442 429.76C493.948 432.439 482.647 434.209 482.647 434.209C482.647 434.209 481.829 431.486 482.46 430.728C483.092 429.97 489.926 425.458 490.777 424.446C491.628 423.434 498.185 414.588 499.906 413.748C501.628 412.908 502.179 412.966 504.016 413.242C505.853 413.518 508.763 413.322 511.215 411.625C513.667 409.927 511.259 407.961 511.742 407.374C512.224 406.788 513.084 406.93 513.786 407.567Z" fill="#D8DDF3"/>
<path fill-rule="evenodd" clip-rule="evenodd" d="M519.001 412.479C519.729 412.567 523.083 418.282 522.871 418.703C522.658 419.123 521.546 421.974 514.948 425.193C508.35 428.411 497.056 434.195 492.499 435.25C487.941 436.304 482.544 435.358 482.24 434.734C481.935 434.109 481.825 433.84 482.012 433.749C482.199 433.658 492.487 432.118 495.027 430.378C496.331 429.486 512.548 420.997 512.548 420.997C512.548 420.997 518.646 412.436 519.001 412.479Z" fill="#93B2CC"/>
<path fill-rule="evenodd" clip-rule="evenodd" d="M478.408 226C478.408 226 481.884 236.634 482.404 247.268C482.923 257.902 480.486 268.536 480.486 268.536L483.306 326.264C483.306 326.264 489.352 340.977 492.172 349.615C495.312 359.232 494.506 361.17 504.409 390.32C505.294 392.924 491.803 397.288 491.803 397.288L460.144 329.259L437.961 226H478.408Z" fill="#0A2650"/>
<path fill-rule="evenodd" clip-rule="evenodd" d="M403.714 434.431C400.376 435.213 390.482 434.344 383.064 434.862C379.725 435.096 373.089 434.359 371.95 433.851C370.318 433.123 372.852 431.034 374.511 430.371C377.23 429.285 381.544 427.545 384.564 426.243C389.288 424.207 393.951 422.304 394.478 419.125C395.006 415.945 396.681 400.46 396.681 400.46L409.415 399.922C409.415 399.922 406.082 418.805 406.437 420.873C406.792 422.941 406.792 430.838 406.792 430.838C406.792 430.838 407.053 433.649 403.714 434.431Z" fill="#FFC4A7"/>
<path fill-rule="evenodd" clip-rule="evenodd" d="M408.08 419.998C408.463 420.866 410.033 426.604 410.033 426.604L410.13 429.398C410.13 429.398 392.057 434.225 385.949 434.438C379.841 434.651 368.796 431.671 368.796 431.671C368.796 431.671 369.157 428.851 370.042 428.415C370.927 427.98 379.005 426.637 380.195 426.059C381.384 425.481 390.972 420.066 392.886 419.999C394.8 419.933 395.28 420.209 396.846 421.208C398.412 422.208 401.15 423.212 404.081 422.659C407.011 422.106 405.611 419.33 406.291 418.99C406.97 418.651 407.697 419.131 408.08 419.998Z" fill="#E3E9FF"/>
<path fill-rule="evenodd" clip-rule="evenodd" d="M410.846 426.606C411.475 426.983 412.215 433.569 411.85 433.866C411.485 434.164 409.309 436.316 401.972 436.573C394.636 436.829 381.966 437.52 377.373 436.629C372.781 435.739 368.236 432.679 368.211 431.985C368.187 431.291 368.196 431 368.404 430.993C368.611 430.986 378.636 433.764 381.665 433.208C383.218 432.923 401.486 431.764 401.486 431.764C401.486 431.764 410.54 426.423 410.846 426.606Z" fill="#93B2CC"/>
<path fill-rule="evenodd" clip-rule="evenodd" d="M409.668 403.749H396.004L399.35 333.151L423.742 229.696H469.17C469.17 229.696 467.231 242.105 464.735 248.36C462.239 254.615 450.929 264.294 450.929 264.294L421.977 333.151C421.977 333.151 420.572 356.429 418.157 369.242C415.742 382.055 409.668 403.749 409.668 403.749Z" fill="#113B7B"/>
<path fill-rule="evenodd" clip-rule="evenodd" d="M425.666 231.714L430.825 248.496L435.984 231.788L425.666 231.714Z" fill="#0A2650"/>
<path d="M436.749 229.696L406.104 331.89L399.586 403.714" stroke="#0A2650" stroke-width="0.587664"/>
<path fill-rule="evenodd" clip-rule="evenodd" d="M437.311 121.806L437.311 128.275C437.311 128.275 434.615 126.875 434.615 126.329C434.615 125.782 437.311 121.806 437.311 121.806Z" fill="#F19B93"/>
<path fill-rule="evenodd" clip-rule="evenodd" d="M459.746 144.133H445.645L446.976 137.513C446.976 137.513 441.179 138.131 438.54 134.363C435.901 130.594 436.265 110.968 436.265 110.968L459.746 110.968V144.133Z" fill="#FFC4A7"/>
<path fill-rule="evenodd" clip-rule="evenodd" d="M454.608 136.014C449.915 135.957 439.486 127.55 438.641 116.721C437.796 105.892 439.365 97.905 452.637 100.739C464.555 97.3605 472.211 108.947 472.211 116.721C472.211 125.595 462.515 135.957 459.783 135.957C459.079 135.957 456.435 136.037 454.608 136.014Z" fill="#5B1E09"/>
<path fill-rule="evenodd" clip-rule="evenodd" d="M466.694 119.219C462.714 119.219 459.487 115.992 459.487 112.012C459.487 108.031 462.714 104.805 466.694 104.805C470.675 104.805 473.901 108.031 473.901 112.012C473.901 115.992 470.675 119.219 466.694 119.219Z" fill="#FF4F4F"/>
<path fill-rule="evenodd" clip-rule="evenodd" d="M470.298 119.034C465.246 119.034 461.15 114.939 461.15 109.887C461.15 104.835 465.246 100.739 470.298 100.739C475.35 100.739 479.445 104.835 479.445 109.887C479.445 114.939 475.35 119.034 470.298 119.034Z" fill="#5B1E09"/>
<path fill-rule="evenodd" clip-rule="evenodd" d="M446.976 137.513L449.916 137.087L445.645 144.133L446.976 137.513Z" fill="#F19B93"/>
<path fill-rule="evenodd" clip-rule="evenodd" d="M440.874 118.695C440.874 118.695 434.068 111.991 435.623 107.233C438.641 97.9979 454.206 101.045 454.206 101.045L440.874 118.695Z" fill="#5B1E09"/>
<path fill-rule="evenodd" clip-rule="evenodd" d="M480.051 155.365C481.296 150.486 478.113 145.592 473.13 144.87C466.941 143.973 458.966 142.957 453.566 142.782C445.82 142.532 436.186 143.781 432.247 144.355C431.112 144.52 430.15 145.236 429.665 146.276C427.203 151.551 419.713 168.112 419.285 175.245C418.894 181.785 424.862 189.081 424.862 195.787C424.862 202.492 420.461 234.066 420.461 234.066L481.265 237.145C481.802 237.172 482.206 236.662 482.057 236.145L470.063 194.53L480.051 155.365Z" fill="#FFE3F4"/>
<path fill-rule="evenodd" clip-rule="evenodd" d="M443.499 142.989L443.477 143.653C443.46 144.217 443.869 144.704 444.427 144.785C447.919 145.29 451.102 145.589 453.975 145.681C456.715 145.769 459.174 145.67 461.351 145.383C461.89 145.312 462.298 144.861 462.315 144.318L462.342 143.405C458.975 143.048 456.029 142.829 453.506 142.747C450.398 142.647 447.063 142.727 443.499 142.989Z" fill="#FF4F4F"/>
<path fill-rule="evenodd" clip-rule="evenodd" d="M439.539 160.574C437.798 169.572 424.788 193.142 424.788 193.142L422.196 185.701L435.912 157.628C435.912 157.628 441.279 151.575 439.539 160.574Z" fill="#080708" fill-opacity="0.16144"/>
<path fill-rule="evenodd" clip-rule="evenodd" d="M424.226 153.409L408.779 184.709L389.917 156.465C389.855 156.371 389.816 156.265 389.803 156.153L388.581 145.485C388.581 145.485 384.229 135.006 382.954 138.232C382.401 139.633 383.647 141.666 382.954 146.654C382.826 147.578 375.357 142.531 372.152 140.318C371.629 139.958 370.929 140.416 371.049 141.039L373.309 152.697C373.34 152.856 373.425 153 373.549 153.104L384.229 162.028L398.679 197.018C401.829 204.647 412.394 205.272 416.421 198.068L437.779 159.866L424.226 153.409Z" fill="#FFC4A7"/>
<path fill-rule="evenodd" clip-rule="evenodd" d="M423.084 149.312C425.381 144.855 430.832 143.07 435.32 145.305L435.935 145.611C440.698 147.984 442.447 153.898 439.742 158.479L429.554 175.73L414.493 165.983L423.084 149.312Z" fill="#FFE3F4"/>
<path fill-rule="evenodd" clip-rule="evenodd" d="M413.799 165.223C413.898 165.042 414.126 164.977 414.305 165.079L430.889 174.487C431.067 174.588 431.129 174.813 431.029 174.991L428.974 178.614C428.873 178.793 428.645 178.855 428.467 178.751L412.039 169.189C411.866 169.088 411.805 168.868 411.901 168.692L413.799 165.223Z" fill="#FF4F4F"/>
<defs>
<linearGradient id="paint0_linear" x1="711.746" y1="161.81" x2="711.779" y2="166.801" gradientUnits="userSpaceOnUse">
<stop stop-color="#D7DDF9"/>
<stop offset="1" stop-color="#F3F3F8"/>
</linearGradient>
</defs>
</svg>
